<svg xmlns="http://www.w3.org/2000/svg" xmlns:xlink="http://www.w3.org/1999/xlink" width="500" zoomAndPan="magnify" viewBox="0 0 375 374.999991" height="500" preserveAspectRatio="xMidYMid meet" version="1.0"><defs><clipPath id="75a3423af3"><path d="M 141 117.023438 L 233.984375 117.023438 L 233.984375 258 L 141 258 Z M 141 117.023438 " clip-rule="nonzero"/></clipPath></defs><rect x="-37.5" width="450" fill="#ffffff" y="-37.499999" height="449.999989" fill-opacity="1"/><rect x="-37.5" width="450" fill="#000000" y="-37.499999" height="449.999989" fill-opacity="1"/><g clip-path="url(#75a3423af3)"><path fill="#ffffff" d="M 204.535156 159.292969 L 228.039062 159.292969 C 229.976562 159.292969 231.636719 160.3125 232.503906 162.046875 C 233.371094 163.777344 233.207031 165.714844 232.050781 167.273438 L 169.933594 250.867188 C 169.4375 251.523438 168.890625 251.988281 168.148438 252.359375 L 158.25 257.308594 C 156.789062 258.042969 155.210938 258.03125 153.746094 257.300781 L 149.765625 255.269531 C 147.570312 254.152344 146.519531 251.667969 147.261719 249.320312 L 161.902344 202.636719 L 146.972656 202.636719 C 145.394531 202.636719 144.054688 201.984375 143.066406 200.757812 C 142.085938 199.542969 141.746094 198.078125 142.085938 196.550781 L 157.777344 125.96875 C 158.117188 124.445312 159.023438 123.28125 160.417969 122.578125 L 170.324219 117.628906 C 171.066406 117.257812 171.777344 117.09375 172.601562 117.09375 L 222.183594 117.515625 C 224.058594 117.535156 225.648438 118.496094 226.546875 120.136719 C 227.433594 121.773438 227.359375 123.640625 226.359375 125.207031 L 204.535156 159.292969 " fill-opacity="1" fill-rule="evenodd"/></g><path fill="#000000" d="M 174.386719 122.113281 L 222.144531 122.515625 L 195.398438 164.292969 L 228.039062 164.292969 L 165.921875 247.886719 L 156.015625 252.835938 L 152.023438 250.8125 L 168.714844 197.636719 L 146.972656 197.636719 L 162.652344 127.054688 L 172.5625 122.09375 L 174.386719 122.113281 " fill-opacity="1" fill-rule="evenodd"/><path fill="#ffbb00" d="M 218.027344 124.742188 L 174.375 124.371094 L 159.695312 190.40625 L 181.707031 190.40625 L 164.097656 246.535156 L 223.523438 166.5625 L 191.242188 166.5625 L 218.027344 124.742188 " fill-opacity="1" fill-rule="evenodd"/></svg>